<?xml version="1.0" encoding="utf-8"?>
<svg version="1.1" id="Layer_1" xmlns="http://www.w3.org/2000/svg" xmlns:xlink="http://www.w3.org/1999/xlink" x="0px" y="0px"
	 viewBox="0 0 218.9 49.9" style="enable-background:new 0 0 218.9 49.9;" xml:space="preserve">
<style type="text/css">
	.st0{fill:#1C1C1C;}
	.st1{fill:#E94E1B;}
</style>
<g>
	<path class="st0" d="M30.5,21.1c0,6.2-4.2,10.1-10.9,10.1h-5v7.7H8.8V11h10.8C26.3,11,30.5,14.9,30.5,21.1z M24.6,21.1
		c0-3.1-1.8-4.8-5.3-4.8h-4.7v9.7h4.7C22.8,25.9,24.6,24.1,24.6,21.1z"/>
	<path class="st0" d="M55.1,36.9l1.9-4.5c1.7,1.2,4.3,2.1,6.7,2.1c2.6,0,3.5-0.8,3.5-1.9c0-3.5-11.6,0.1-11.6-8.5
		c0-4.1,3.3-6.9,8.9-6.9c2.6,0,5.6,0.7,7.4,1.9L70,23.4c-1.9-1.2-3.8-1.6-5.5-1.6c-2.5,0-3.6,0.9-3.6,2c0,3.7,11.6,0.1,11.6,8.5
		c0,4-3.3,6.8-9.1,6.8C60.1,39.2,56.9,38.2,55.1,36.9z"/>
	<path class="st0" d="M88.7,37.8c-1.1,0.9-2.8,1.4-4.5,1.4c-4.5,0-7.2-2.6-7.2-7.7v-8.8h-3v-4.8h3v-5.2h5.6v5.2h4.8v4.8h-4.8v8.7
		c0,1.8,0.9,2.8,2.4,2.8c0.8,0,1.6-0.3,2.3-0.8L88.7,37.8z"/>
	<path class="st0" d="M90,28.1c0-6.4,4.5-11,10.6-11s10.6,4.6,10.6,11s-4.4,11-10.6,11S90,34.6,90,28.1z M105.5,28.1
		c0-3.7-2.1-5.9-4.9-5.9s-4.9,2.2-4.9,5.9c0,3.7,2.1,5.9,4.9,5.9S105.5,31.8,105.5,28.1z"/>
</g>
<path class="st1" d="M44.7,23.5c-4.1,0.7-8.1,1.5-12.2,2.2c0.1-2.4,2.3-5.3,4.9-6.7c3.1-1.6,6.3-1.9,9.7-1.5c2,0.3,3.9,0.6,5.9,1.3
	c0.8,0.2,0.9,0.6,0.7,1.4c-1.6,5.7-5.2,9.4-11.2,10.5c-1.1,0.2-2.2,0.1-3.3,0.1c-0.3,0-0.7-0.2-0.9,0.2c-0.2,0.4,0.1,0.6,0.3,1
	c1.7,3.2,6.2,3.4,9.2,1.3c0.9-0.6,1.3-0.5,1.9,0.3c0.5,0.7,1.1,1.3,1.8,1.9c0.7,0.6,0.5,1-0.1,1.5C47.9,39.6,44.1,40,40,39
	c-4-0.9-6.6-3.4-7.6-7.3c-0.2-0.8-0.6-0.8-1.2-0.6c-1,0.4-1.8,0.9-2.6,1.6c-0.2,0.2-0.3,0.6-0.7,0.4c-0.4-0.2-0.5-0.6-0.5-1
	c0.1-1.1,0.6-2,1.4-2.6c1.3-1,2.8-1.5,4.3-1.9c1.7-0.5,3.3-0.8,5-1.2C40.6,25.9,42.7,24.8,44.7,23.5z"/>
<g>
	<path class="st0" d="M136.2,18.1v18.5c0,7-3,10.1-9,10.1c-3.4,0-6.7-1.2-8.5-3.3l1-1.5c1.9,1.9,4.5,3,7.5,3c5,0,7.3-2.5,7.3-8.1
		v-3.5c-1.5,3-4.4,4.7-7.8,4.7c-5.3,0-9.3-4.2-9.3-10.1s4-10.1,9.3-10.1c3.4,0,6.3,1.7,7.8,4.8v-4.7H136.2z M134.5,28
		c0-4.9-3.2-8.3-7.7-8.3c-4.4,0-7.6,3.4-7.6,8.3c0,4.9,3.2,8.3,7.6,8.3C131.3,36.3,134.5,32.9,134.5,28z"/>
	<path class="st0" d="M152.9,17.9v1.9c-0.1,0-0.3,0-0.4,0c-4.1,0-6.6,3.1-6.6,8.2v10.8H144V18.1h1.7v4.5
		C146.9,19.6,149.3,17.9,152.9,17.9z"/>
	<path class="st0" d="M172.1,25.7v13.2h-1.7v-3.7c-1.2,2.4-3.5,3.9-6.7,3.9c-4.2,0-6.7-2.4-6.7-5.9c0-3.1,1.8-5.8,7-5.8h6.4v-1.7
		c0-3.9-1.9-5.9-5.5-5.9c-2.6,0-4.9,1.1-6.4,2.6l-0.9-1.4c1.9-1.8,4.6-2.9,7.5-2.9C169.6,17.9,172.1,20.6,172.1,25.7z M170.4,32.7
		v-3.9H164c-3.9,0-5.2,1.8-5.2,4.2c0,2.7,1.9,4.4,5.2,4.4C167.1,37.4,169.3,35.7,170.4,32.7z"/>
	<path class="st0" d="M210.4,26.7v12.1h-1.8v-12c0-4.7-2.2-7.2-5.8-7.2c-4.2,0-6.8,3.1-6.8,8.1v11h-1.8v-12c0-4.7-2.2-7.2-5.8-7.2
		c-4.2,0-6.8,3.1-6.8,8.1v11h-1.8V18.1h1.7v4.5c1.2-2.9,3.8-4.6,7.2-4.6c3.4,0,5.8,1.7,6.8,5c1.2-3,3.9-5,7.5-5
		C207.5,17.9,210.4,20.9,210.4,26.7z"/>
</g>
</svg>
